<svg width="24" height="24" viewBox="0 0 24 24" fill="none" xmlns="http://www.w3.org/2000/svg">
<g clip-path="url(#clip0_4001_19)">
<path d="M21.3333 12H12C11.6464 12 11.3072 12.1405 11.0572 12.3905C10.8071 12.6406 10.6667 12.9797 10.6667 13.3333V21.3333C10.6667 21.687 10.8071 22.0261 11.0572 22.2761C11.3072 22.5262 11.6464 22.6667 12 22.6667H21.3333C21.6869 22.6667 22.0261 22.5262 22.2761 22.2761C22.5262 22.0261 22.6667 21.687 22.6667 21.3333V13.3333C22.6667 12.9797 22.5262 12.6406 22.2761 12.3905C22.0261 12.1405 21.6869 12 21.3333 12ZM12 21.3333V13.3333H21.3333V21.3333H12Z" fill="#6FFFE9"/>
<path d="M14 14.4666C13.8762 14.4666 13.7575 14.5157 13.67 14.6032C13.5825 14.6908 13.5333 14.8095 13.5333 14.9332V19.9266C13.5333 20.0503 13.5825 20.169 13.67 20.2565C13.7575 20.3441 13.8762 20.3932 14 20.3932C14.1238 20.3932 14.2425 20.3441 14.33 20.2565C14.4175 20.169 14.4667 20.0503 14.4667 19.9266V14.9332C14.4667 14.8095 14.4175 14.6908 14.33 14.6032C14.2425 14.5157 14.1238 14.4666 14 14.4666Z" fill="#6FFFE9"/>
<path d="M16.6667 14.5466C16.5429 14.5466 16.4242 14.5958 16.3367 14.6833C16.2492 14.7708 16.2 14.8895 16.2 15.0133V20C16.2 20.1237 16.2492 20.2424 16.3367 20.3299C16.4242 20.4175 16.5429 20.4666 16.6667 20.4666C16.7904 20.4666 16.9091 20.4175 16.9967 20.3299C17.0842 20.2424 17.1333 20.1237 17.1333 20V15.0133C17.1333 14.8895 17.0842 14.7708 16.9967 14.6833C16.9091 14.5958 16.7904 14.5466 16.6667 14.5466Z" fill="#6FFFE9"/>
<path d="M19.3333 14.4666C19.2096 14.4666 19.0909 14.5157 19.0034 14.6032C18.9158 14.6908 18.8667 14.8095 18.8667 14.9332V19.9266C18.8667 20.0503 18.9158 20.169 19.0034 20.2565C19.0909 20.3441 19.2096 20.3932 19.3333 20.3932C19.4571 20.3932 19.5758 20.3441 19.6633 20.2565C19.7508 20.169 19.8 20.0503 19.8 19.9266V14.9332C19.8 14.8095 19.7508 14.6908 19.6633 14.6032C19.5758 14.5157 19.4571 14.4666 19.3333 14.4666Z" fill="#6FFFE9"/>
<path d="M12 10.6667H18.6667V5.41333C18.6667 4.29333 15.08 3.41333 10.6667 3.41333C6.25332 3.41333 2.66666 4.29333 2.66666 5.41333V18.6667C2.66666 19.6667 5.55332 20.5 9.33332 20.6667V16.8133C7.52419 16.7762 5.7291 16.4867 3.99999 15.9533V14.96L4.15999 15.0267C5.83269 15.5656 7.57615 15.8532 9.33332 15.88V13.3333C9.33546 12.9974 9.40106 12.6649 9.52666 12.3533C7.65231 12.3321 5.79086 12.0402 3.99999 11.4867V10.5L4.15999 10.56C6.10125 11.1671 8.12615 11.4641 10.16 11.44C10.6501 10.9538 11.3097 10.6765 12 10.6667ZM3.99999 7.02666V6.03333L4.15999 6.09333C6.26553 6.74393 8.46381 7.04349 10.6667 6.98C12.9276 7.06632 15.1857 6.74567 17.3333 6.03333V7.03333C15.1704 7.6715 12.9211 7.9684 10.6667 7.91333C8.41179 7.96723 6.16238 7.66805 3.99999 7.02666Z" fill="#6FFFE9"/>
</g>
<defs>
<clipPath id="clip0_4001_19">
<rect width="24" height="24" fill="white"/>
</clipPath>
</defs>
</svg>
