<svg width="30" height="30" viewBox="0 0 30 30" fill="none" xmlns="http://www.w3.org/2000/svg">
<circle cx="15" cy="15" r="15" fill="#3B3B3B"/>
<g clip-path="url(#clip0_8_1137)">
<path fill-rule="evenodd" clip-rule="evenodd" d="M19.3607 9.76873C19.5151 9.70372 19.6842 9.6813 19.8502 9.7038C20.0163 9.7263 20.1733 9.7929 20.3048 9.89666C20.4364 10.0004 20.5378 10.1375 20.5984 10.2938C20.659 10.45 20.6766 10.6196 20.6494 10.785L19.2319 19.3831C19.0944 20.2125 18.1844 20.6881 17.4238 20.275C16.7875 19.9294 15.8425 19.3969 14.9925 18.8412C14.5675 18.5631 13.2657 17.6725 13.4257 17.0387C13.5632 16.4969 15.7507 14.4606 17.0007 13.25C17.4913 12.7744 17.2675 12.5 16.6882 12.9375C15.2494 14.0237 12.9394 15.6756 12.1757 16.1406C11.5019 16.5506 11.1507 16.6206 10.7307 16.5506C9.9644 16.4231 9.25378 16.2256 8.67378 15.985C7.89003 15.66 7.92815 14.5825 8.67315 14.2687L19.3607 9.76873Z" fill="#979DAA"/>
</g>
<defs>
<clipPath id="clip0_8_1137">
<rect width="15" height="15" fill="white" transform="translate(7 7)"/>
</clipPath>
</defs>
</svg>
