<svg width="20" height="20" viewBox="0 0 20 20" fill="none" xmlns="http://www.w3.org/2000/svg">
<g clip-path="url(#clip0_8_1115)">
<path d="M15.8333 4.99984C15.8333 4.77882 15.7455 4.56686 15.5893 4.41058C15.433 4.2543 15.221 4.1665 15 4.1665H8.33333C8.11231 4.1665 7.90035 4.2543 7.74407 4.41058C7.58779 4.56686 7.49999 4.77882 7.49999 4.99984C7.49999 5.22085 7.58779 5.43281 7.74407 5.58909C7.90035 5.74537 8.11231 5.83317 8.33333 5.83317H12.9883L4.69666 14.1248C4.54486 14.282 4.46087 14.4925 4.46277 14.711C4.46466 14.9295 4.55231 15.1385 4.70681 15.293C4.86132 15.4475 5.07033 15.5352 5.28883 15.5371C5.50733 15.539 5.71782 15.455 5.87499 15.3032L14.1667 7.0115V11.6665C14.1667 11.8875 14.2545 12.0995 14.4107 12.2558C14.567 12.412 14.779 12.4998 15 12.4998C15.221 12.4998 15.433 12.412 15.5893 12.2558C15.7455 12.0995 15.8333 11.8875 15.8333 11.6665V4.99984Z" fill="#919191"/>
</g>
<defs>
<clipPath id="clip0_8_1115">
<rect width="20" height="20" fill="white" transform="matrix(-1 0 0 1 20 0)"/>
</clipPath>
</defs>
</svg>
