<svg width="25" height="25" viewBox="0 0 25 25" fill="none" xmlns="http://www.w3.org/2000/svg">
<g clip-path="url(#clip0_8_1097)">
<path fill-rule="evenodd" clip-rule="evenodd" d="M8.5 6.5C10.0913 6.5 11.6174 7.13214 12.7426 8.25736C13.8679 9.38258 14.5 10.9087 14.5 12.5C14.5 14.0913 13.8679 15.6174 12.7426 16.7426C11.6174 17.8679 10.0913 18.5 8.5 18.5C6.9087 18.5 5.38258 17.8679 4.25736 16.7426C3.13214 15.6174 2.5 14.0913 2.5 12.5C2.5 10.9087 3.13214 9.38258 4.25736 8.25736C5.38258 7.13214 6.9087 6.5 8.5 6.5ZM17.5 7.5C19 7.5 20 9.739 20 12.5C20 15.261 19 17.5 17.5 17.5C16 17.5 15 15.261 15 12.5C15 9.739 16 7.5 17.5 7.5ZM21.5 8C21.88 8 22.212 8.827 22.38 10.246L22.427 10.689L22.446 10.924L22.476 11.418L22.486 11.677L22.498 12.218L22.5 12.5L22.498 12.782L22.486 13.323L22.476 13.583L22.446 14.076L22.426 14.311L22.381 14.754C22.212 16.174 21.881 17 21.5 17C21.12 17 20.788 16.173 20.62 14.754L20.573 14.311C20.5661 14.2327 20.5598 14.1544 20.554 14.076L20.524 13.582C20.5201 13.4957 20.5168 13.4094 20.514 13.323L20.502 12.782V12.218L20.514 11.677L20.524 11.417L20.554 10.924L20.574 10.689L20.619 10.246C20.788 8.826 21.119 8 21.5 8ZM8.5 8.5C7.43913 8.5 6.42172 8.92143 5.67157 9.67157C4.92143 10.4217 4.5 11.4391 4.5 12.5C4.5 13.5609 4.92143 14.5783 5.67157 15.3284C6.42172 16.0786 7.43913 16.5 8.5 16.5C9.56087 16.5 10.5783 16.0786 11.3284 15.3284C12.0786 14.5783 12.5 13.5609 12.5 12.5C12.5 11.4391 12.0786 10.4217 11.3284 9.67157C10.5783 8.92143 9.56087 8.5 8.5 8.5ZM17.456 9.903C17.093 10.703 17 11.634 17 12.5C17 13.366 17.092 14.298 17.456 15.097C17.474 15.135 17.526 15.135 17.544 15.097C17.907 14.297 18 13.366 18 12.5C18 11.634 17.908 10.702 17.544 9.903C17.5403 9.89444 17.5341 9.88715 17.5263 9.88203C17.5185 9.87691 17.5093 9.87418 17.5 9.87418C17.4907 9.87418 17.4815 9.87691 17.4737 9.88203C17.4659 9.88715 17.4597 9.89444 17.456 9.903Z" fill="#979DAA"/>
</g>
<defs>
<clipPath id="clip0_8_1097">
<rect width="24" height="24" fill="white" transform="translate(0.5 0.5)"/>
</clipPath>
</defs>
</svg>
