<svg width="25" height="25" viewBox="0 0 25 25" fill="none" xmlns="http://www.w3.org/2000/svg">
<g clip-path="url(#clip0_8_1087)">
<path fill-rule="evenodd" clip-rule="evenodd" d="M20.277 4.92997C20.5241 4.82596 20.7946 4.79008 21.0603 4.82608C21.326 4.86208 21.5772 4.96863 21.7877 5.13465C21.9982 5.30067 22.1604 5.52008 22.2574 5.77005C22.3543 6.02002 22.3825 6.29141 22.339 6.55597L20.071 20.313C19.851 21.64 18.395 22.401 17.178 21.74C16.16 21.187 14.648 20.335 13.288 19.446C12.608 19.001 10.525 17.576 10.781 16.562C11.001 15.695 14.501 12.437 16.501 10.5C17.286 9.73897 16.928 9.29997 16.001 9.99997C13.699 11.738 10.003 14.381 8.78102 15.125C7.70302 15.781 7.14102 15.893 6.46902 15.781C5.24302 15.577 4.10602 15.261 3.17802 14.876C1.92402 14.356 1.98502 12.632 3.17702 12.13L20.277 4.92997Z" fill="#979DAA"/>
</g>
<defs>
<clipPath id="clip0_8_1087">
<rect width="24" height="24" fill="white" transform="translate(0.5 0.5)"/>
</clipPath>
</defs>
</svg>
