<svg width="1050" height="509" viewBox="0 0 1050 509" fill="none" xmlns="http://www.w3.org/2000/svg">
<g opacity="0.2">
<path d="M306.279 509L0 134.044L1.02286 133.817L608.328 0L608.547 0.128507L1050 262.583L1048.66 263.024L306.279 509ZM2.31664 134.846L306.717 507.5L1046.91 262.253L608.1 1.36677L2.31664 134.846Z" fill="#5BC0BE"/>
<path d="M1012.67 240.534L279.596 474.927L279.99 476.151L1013.07 241.758L1012.67 240.534Z" fill="#5BC0BE"/>
<path d="M978.329 220.239L255.487 445.366L255.872 446.593L978.713 221.466L978.329 220.239Z" fill="#5BC0BE"/>
<path d="M232.419 418.205L231.8 416.152C232.617 415.908 314.415 391.37 385.76 369.84C439.755 353.545 497.059 340.173 547.62 328.373C563.664 324.629 578.819 321.094 592.486 317.773C628.107 309.127 662.903 296.012 706.953 279.404C731.163 270.278 758.605 259.931 790.139 248.876C877.172 218.366 944.628 200.4 945.298 200.22L945.848 202.29C945.178 202.47 877.799 220.414 790.848 250.894C759.336 261.94 731.906 272.283 707.709 281.405C663.586 298.038 628.739 311.175 592.989 319.855C579.313 323.176 564.154 326.711 548.106 330.46C497.575 342.251 440.305 355.615 386.379 371.892C315.033 393.422 233.235 417.96 232.419 418.205Z" fill="#5BC0BE"/>
<path d="M210.014 390.92L209.287 388.452C210.353 388.139 316.465 357.204 361.653 345.405C407.946 333.318 433.678 329.864 467.558 331.184C533.119 333.742 569.432 319.885 595.946 309.769C601.193 307.768 606.149 305.875 610.898 304.272C635.899 295.819 658.416 283.175 682.252 269.785C704.468 257.309 729.65 243.165 760.384 230.5C809.57 210.233 912.729 181.595 913.764 181.308L914.456 183.784C913.421 184.072 810.412 212.667 761.373 232.873C730.78 245.479 706.755 258.971 683.52 272.022C659.572 285.471 636.957 298.175 611.728 306.706C607.026 308.296 602.092 310.176 596.87 312.173C572.337 321.531 539.48 334.067 483.142 334.067C478.105 334.067 472.883 333.969 467.459 333.755C433.871 332.444 408.32 335.88 362.311 347.894C317.157 359.685 211.084 390.612 210.014 390.92Z" fill="#5BC0BE"/>
<path d="M883.361 164.949C875.895 166.865 868.443 168.878 861.012 170.943C853.576 173 846.167 175.142 838.77 177.332C823.989 181.741 809.278 186.394 794.772 191.587C792.95 192.217 791.149 192.898 789.348 193.575L783.941 195.606C782.149 196.308 780.374 197.041 778.59 197.761C776.807 198.485 775.014 199.183 773.27 199.98L768 202.303C766.255 203.104 764.532 203.961 762.795 204.788C759.31 206.416 755.906 208.211 752.485 209.959C750.761 210.816 749.094 211.772 747.4 212.684C745.716 213.614 744.014 214.505 742.35 215.469C739.024 217.402 735.671 219.283 732.405 221.318C725.816 225.281 719.391 229.518 713.043 233.863C700.355 242.574 688.136 251.953 675.969 261.426C669.879 266.161 663.819 270.916 657.647 275.591C651.428 280.24 644.972 284.537 638.379 288.608L634.666 290.883L628.386 294.529L623.293 297.327C622.442 297.785 621.6 298.27 620.736 298.711L618.149 300.039C611.285 303.642 604.219 306.852 597.098 309.911C582.781 315.862 567.958 320.695 552.734 323.866C550.83 324.251 548.909 324.556 546.997 324.903L542.69 325.661C542.213 325.747 541.732 325.794 541.25 325.858L529.719 327.354C525.864 327.735 522 328.06 518.141 328.42L516.692 328.553L515.239 328.635L506.532 329.102C491.038 329.757 475.514 329.346 460.076 328.086L454.291 327.559C452.365 327.384 450.435 327.221 448.514 326.998C444.668 326.582 440.817 326.184 436.983 325.7C429.302 324.796 421.648 323.763 413.997 322.855L408.26 322.191L402.522 321.638C401.564 321.535 400.609 321.475 399.655 321.415L396.789 321.231C394.876 321.068 392.972 321.077 391.064 321.034C390.11 321.025 389.16 320.978 388.197 320.999L385.309 321.051C383.383 321.072 381.462 321.132 379.541 321.197C377.616 321.244 375.699 321.338 373.777 321.432C371.856 321.509 369.939 321.638 368.018 321.766C360.347 322.276 352.701 323.095 345.093 324.2C337.486 325.301 329.917 326.702 322.387 328.305C314.857 329.894 307.37 331.724 299.913 333.66C298.052 334.153 296.183 334.62 294.322 335.13L277.568 339.689L188.137 363.88L187.703 362.273L276.95 337.482L293.699 332.851C295.56 332.332 297.434 331.852 299.303 331.351C306.782 329.376 314.29 327.508 321.863 325.88C329.432 324.239 337.047 322.799 344.715 321.655C352.382 320.502 360.102 319.675 367.838 319.148C369.772 319.02 371.706 318.883 373.64 318.806C375.574 318.707 377.512 318.613 379.446 318.561C381.38 318.493 383.319 318.433 385.253 318.407L388.158 318.352C389.125 318.33 390.11 318.373 391.085 318.382C393.036 318.42 394.996 318.416 396.93 318.574L399.844 318.759C400.816 318.819 401.787 318.879 402.75 318.981L408.543 319.53L414.311 320.19C421.996 321.089 429.646 322.113 437.305 323.005C441.13 323.48 444.964 323.87 448.793 324.281C450.706 324.5 452.627 324.654 454.544 324.83L460.295 325.344C475.643 326.561 491.046 326.976 506.411 326.351L515.05 325.897L516.49 325.82L517.926 325.691C521.755 325.34 525.585 325.023 529.414 324.646L540.855 323.172C541.332 323.103 541.809 323.06 542.282 322.975L546.528 322.229C548.415 321.886 550.31 321.595 552.189 321.214C567.21 318.099 581.874 313.334 596.062 307.456C603.119 304.431 610.125 301.264 616.928 297.695L619.49 296.38C620.345 295.947 621.179 295.467 622.026 295.013L627.08 292.245L632.065 289.357L633.312 288.633L634.541 287.884L637 286.38C643.537 282.352 649.941 278.098 656.082 273.517C662.215 268.886 668.306 264.138 674.404 259.425C686.606 249.982 698.894 240.603 711.672 231.879C718.067 227.53 724.54 223.289 731.184 219.317C734.477 217.282 737.855 215.392 741.207 213.46C742.883 212.496 744.602 211.605 746.3 210.67C748.006 209.758 749.691 208.802 751.423 207.941C754.874 206.189 758.304 204.394 761.816 202.765C763.565 201.938 765.301 201.081 767.063 200.28L772.393 197.949C774.159 197.148 775.964 196.45 777.765 195.734C779.566 195.023 781.358 194.29 783.163 193.592L788.605 191.578C790.418 190.901 792.232 190.229 794.059 189.607C808.646 184.466 823.409 179.877 838.237 175.532C845.655 173.377 853.086 171.269 860.543 169.247C867.996 167.216 875.461 165.241 882.961 163.355L883.361 164.949Z" fill="#5BC0BE"/>
<path d="M167.924 339.458L166.987 336.608C167.756 336.356 244.535 311.419 289.28 306.282C348.037 299.538 379.404 308.116 412.609 317.203C418.553 318.827 424.695 320.511 431.039 322.113L430.3 325.023C423.926 323.412 417.771 321.724 411.814 320.095C378.896 311.089 347.805 302.58 289.624 309.26C245.184 314.363 168.693 339.205 167.924 339.458Z" fill="#5BC0BE"/>
<path d="M578.402 316.205L577.86 315.04C578.26 314.855 618.445 296.106 657.784 254.746C696.521 214.021 717.861 191.591 761.743 175.412C804.43 159.679 853.684 146.525 854.174 146.393L854.505 147.635C854.015 147.768 804.816 160.905 762.19 176.621C718.587 192.692 697.325 215.049 658.721 255.633C619.206 297.177 578.806 316.021 578.402 316.205Z" fill="#5BC0BE"/>
<path d="M825.536 130.368C817.366 132.476 809.247 134.837 801.163 137.271C793.079 139.721 785.046 142.322 777.065 145.077C769.088 147.845 761.175 150.784 753.353 153.929C745.526 157.07 737.79 160.425 730.247 164.161C728.365 165.099 726.478 166.029 724.63 167.027C723.702 167.52 722.769 168.004 721.845 168.506L717.727 170.819L713.683 173.249C712.793 173.801 711.925 174.384 711.044 174.95C710.167 175.519 709.282 176.081 708.435 176.693L705.874 178.497C705.036 179.119 704.223 179.77 703.394 180.4L702.16 181.359L698.52 184.384C696.9 185.725 695.327 187.122 693.728 188.489C692.142 189.869 690.586 191.287 689.013 192.684L684.376 196.964L679.807 201.321C676.785 204.252 673.79 207.209 670.85 210.225C664.958 216.24 659.216 222.406 653.542 228.649C642.196 241.126 631.154 253.919 619.494 266.199C613.666 272.339 607.683 278.355 601.417 284.087C595.164 289.829 588.631 295.292 581.75 300.3C574.847 305.275 567.713 309.954 560.157 313.925C552.623 317.919 544.714 321.244 536.544 323.733C528.378 326.235 519.946 327.855 511.453 328.549C502.96 329.256 494.437 329.192 485.983 328.575L486.048 327.409C494.48 327.671 502.917 327.559 511.264 326.612L512.828 326.445C513.348 326.385 513.868 326.295 514.384 326.222L517.496 325.768C518.536 325.64 519.563 325.417 520.595 325.228L523.685 324.646C524.708 324.431 525.726 324.17 526.745 323.93C527.764 323.682 528.786 323.459 529.797 323.189L535.074 321.659C535.324 321.582 535.569 321.492 535.818 321.406C543.786 318.831 551.462 315.417 558.838 311.458C566.217 307.49 573.205 302.82 580 297.914C586.77 292.965 593.191 287.537 599.401 281.885C605.616 276.229 611.564 270.274 617.371 264.181C628.997 251.996 640.06 239.236 651.462 226.755C662.869 214.278 674.585 202.016 687.247 190.726C688.841 189.329 690.419 187.915 692.026 186.535C693.646 185.168 695.241 183.772 696.887 182.435L700.579 179.414L701.855 178.437C702.71 177.79 703.553 177.13 704.417 176.501L707.047 174.675C707.915 174.054 708.818 173.489 709.716 172.914C710.619 172.345 711.508 171.758 712.415 171.205L715.161 169.577L716.537 168.767L720.723 166.453C721.66 165.952 722.606 165.468 723.547 164.975C725.425 163.977 727.333 163.055 729.242 162.117C744.529 154.713 760.423 148.741 776.476 143.355C792.554 138.025 808.801 133.256 825.262 129.233L825.536 130.368Z" fill="#5BC0BE"/>
<path d="M401.155 317.195C400.674 316.993 352.477 297.044 322.142 290.639C295.474 285.009 257.815 281.782 147.9 314.988L147.028 312.117C195.469 297.481 233.231 288.801 262.474 285.574C291.541 282.369 309.261 284.85 322.765 287.699C353.371 294.161 401.826 314.221 402.311 314.423L401.155 317.195Z" fill="#5BC0BE"/>
<path d="M128.125 289.649C142.902 284.709 157.876 280.411 172.983 276.589C188.09 272.785 203.339 269.49 218.743 267.013C226.445 265.775 234.194 264.807 241.977 264.13C249.761 263.466 257.583 263.11 265.423 263.298L268.362 263.371C269.342 263.423 270.322 263.496 271.298 263.556L274.238 263.748L277.169 264.07C278.145 264.185 279.124 264.271 280.1 264.408L283.018 264.884C284.974 265.167 286.882 265.604 288.803 266.011C296.466 267.694 303.979 269.961 311.363 272.51C326.135 277.635 340.438 283.843 354.806 289.765C369.166 295.69 383.633 301.346 398.491 305.669C405.917 307.829 413.43 309.662 421.025 311.033C422.929 311.346 424.828 311.693 426.732 311.976L432.466 312.734L438.221 313.274C440.142 313.424 442.067 313.497 443.988 313.608C451.686 313.917 459.401 313.651 467.051 312.794L469.918 312.447L471.349 312.272C471.826 312.216 472.299 312.117 472.776 312.045L478.471 311.081L484.118 309.877C485.064 309.697 485.988 309.418 486.925 309.187L489.723 308.467C504.598 304.452 518.914 298.394 532.324 290.75C545.755 283.128 558.36 274.079 570.261 264.203C582.175 254.326 593.371 243.593 604.185 232.479C609.596 226.926 614.913 221.271 620.233 215.611L636.282 198.699C641.641 193.069 647.005 187.431 652.562 181.964L654.638 179.907C655.33 179.221 656.048 178.557 656.753 177.885C658.171 176.544 659.568 175.185 661.003 173.866L665.353 169.945C665.718 169.62 666.075 169.29 666.445 168.968L667.562 168.021L672.041 164.242C672.801 163.625 673.575 163.034 674.344 162.43L676.652 160.622C677.43 160.026 678.174 159.396 678.982 158.839L683.748 155.42C684.53 154.838 685.355 154.306 686.176 153.775L691.093 150.57C691.923 150.052 692.778 149.576 693.62 149.075C695.314 148.094 696.99 147.082 698.696 146.127L703.905 143.419C705.624 142.481 707.417 141.692 709.196 140.883C716.266 137.523 723.667 134.936 731.077 132.472C738.508 130.158 745.943 127.853 753.405 125.638C760.866 123.414 768.34 121.242 775.848 119.172C779.6 118.136 783.365 117.146 787.139 116.173C790.912 115.209 794.686 114.271 798.511 113.452L798.683 114.271C794.914 115.141 791.145 116.139 787.397 117.154C783.649 118.183 779.906 119.232 776.175 120.325C768.705 122.484 761.261 124.734 753.834 127.043C746.408 129.34 739.006 131.731 731.605 134.13C724.286 136.658 716.997 139.302 710.047 142.704C706.505 144.263 703.145 146.183 699.719 147.961C698.043 148.916 696.393 149.927 694.729 150.909C693.904 151.41 693.062 151.881 692.249 152.4L687.418 155.596C686.61 156.127 685.803 156.654 685.033 157.237L680.348 160.648C679.557 161.2 678.823 161.83 678.058 162.421L675.788 164.225C675.036 164.829 674.271 165.421 673.523 166.033L668.022 170.746C667.657 171.063 667.304 171.398 666.948 171.719L662.667 175.635C661.253 176.955 659.873 178.317 658.476 179.654C657.784 180.327 657.079 180.991 656.392 181.676L654.346 183.737C648.862 189.209 643.558 194.869 638.242 200.529L622.322 217.547C617.027 223.233 611.715 228.914 606.304 234.514C595.486 245.714 584.251 256.563 572.26 266.576C560.273 276.581 547.521 285.746 533.901 293.496C527.097 297.383 520.062 300.875 512.824 303.904C505.591 306.937 498.155 309.521 490.569 311.565L487.716 312.297C486.761 312.533 485.82 312.812 484.853 312.996L479.085 314.217L473.27 315.194C472.785 315.267 472.303 315.369 471.813 315.421L467.421 315.948C459.603 316.818 451.72 317.079 443.868 316.753C441.908 316.633 439.944 316.561 437.984 316.402L432.118 315.845L426.281 315.065C424.338 314.774 422.408 314.423 420.474 314.101C412.755 312.7 405.135 310.828 397.627 308.608C382.606 304.182 368.061 298.424 353.693 292.438L332.174 283.428C324.996 280.458 317.793 277.579 310.491 275C303.193 272.42 295.792 270.132 288.266 268.427L285.442 267.806C284.501 267.575 283.551 267.459 282.606 267.283L279.765 266.799C278.815 266.662 277.856 266.568 276.898 266.448L274.031 266.113L271.147 265.908C270.185 265.844 269.226 265.762 268.263 265.706L265.367 265.612C257.643 265.372 249.894 265.668 242.167 266.276C234.439 266.889 226.733 267.814 219.057 268.967C203.7 271.259 188.46 274.37 173.344 277.995C165.788 279.811 158.262 281.765 150.767 283.835C143.271 285.896 135.801 288.068 128.405 290.433L128.125 289.649Z" fill="#5BC0BE"/>
<path d="M110.358 267.767C124.627 263.08 139.076 259.044 153.646 255.449C160.931 253.658 168.251 251.996 175.605 250.475C182.958 248.954 190.342 247.578 197.765 246.408C212.61 244.099 227.597 242.445 242.687 242.321C250.225 242.261 257.789 242.578 265.307 243.559C269.076 244.052 272.785 244.72 276.481 245.466C280.177 246.216 283.852 247.051 287.505 247.968C294.812 249.798 302.032 251.927 309.197 254.194C316.357 256.465 323.457 258.877 330.562 261.246C344.758 265.981 358.993 270.552 373.576 273.513C380.861 274.995 388.214 276.109 395.607 276.705C402.999 277.309 410.43 277.408 417.831 276.988C425.237 276.585 432.603 275.6 439.884 274.169C440.795 273.984 441.71 273.847 442.617 273.629L450.792 271.752C452.606 271.319 454.437 270.964 456.22 270.437L461.61 268.963C475.965 264.995 490.002 259.901 503.437 253.517C516.873 247.137 529.715 239.527 541.831 230.872C553.968 222.239 565.478 212.727 576.824 202.992C588.192 193.266 599.367 183.347 610.64 173.476C616.275 168.54 621.965 163.66 627.729 158.857L632.091 155.3L634.275 153.526L636.497 151.791C637.984 150.639 639.445 149.465 640.949 148.334L645.475 144.966C646.223 144.396 646.992 143.856 647.766 143.321L652.39 140.081C653.173 139.554 653.968 139.049 654.754 138.535L657.123 136.992C657.913 136.482 658.691 135.951 659.512 135.484L664.373 132.588C666.01 131.654 667.691 130.788 669.35 129.888C670.992 128.959 672.724 128.192 674.43 127.378L676.992 126.165C677.851 125.775 678.741 125.445 679.613 125.081L682.244 124.014L683.559 123.483L684.883 123.007C691.936 120.419 699.066 118.076 706.201 115.762C713.339 113.457 720.513 111.276 727.694 109.125C742.062 104.836 756.495 100.783 770.992 96.9438L771.331 98.1949C764.124 100.209 756.924 102.295 749.747 104.416C742.565 106.537 735.388 108.679 728.24 110.903C721.093 113.131 713.954 115.381 706.858 117.754C699.766 120.136 692.683 122.549 685.699 125.197L684.389 125.685L680.533 127.279C679.682 127.639 678.814 127.969 677.972 128.354L675.466 129.563C673.798 130.377 672.105 131.135 670.493 132.061C668.869 132.96 667.223 133.817 665.615 134.747L660.844 137.635C660.041 138.102 659.276 138.629 658.498 139.139L656.168 140.677C655.395 141.191 654.612 141.697 653.843 142.219L649.287 145.45C648.527 145.986 647.77 146.525 647.031 147.095L642.57 150.459C641.087 151.586 639.643 152.764 638.177 153.916L635.985 155.652L633.823 157.43L629.508 160.995C623.805 165.811 618.166 170.712 612.57 175.674L595.795 190.597C590.204 195.576 584.535 200.486 578.879 205.388C567.545 215.182 555.984 224.805 543.743 233.572L542.604 234.403L539.106 236.794C537.55 237.852 536.003 238.928 534.434 239.964L529.655 242.981C528.06 243.983 526.483 245.012 524.837 245.933L519.945 248.765C519.125 249.228 518.325 249.729 517.487 250.162L509.979 254.108C509.153 254.562 508.298 254.961 507.443 255.359L504.886 256.567C491.265 263.054 477.044 268.239 462.521 272.266C458.885 273.252 455.262 274.306 451.574 275.081L443.309 276.966C442.394 277.185 441.453 277.326 440.529 277.515C433.106 278.963 425.58 279.961 418.016 280.368C410.456 280.793 402.862 280.681 395.319 280.056C387.776 279.43 380.28 278.307 372.888 276.765C358.086 273.706 343.735 269.04 329.535 264.25C315.33 259.464 301.207 254.536 286.766 250.822C283.16 249.888 279.533 249.039 275.888 248.277C272.243 247.514 268.582 246.833 264.92 246.331C257.579 245.325 250.135 244.96 242.691 244.973C227.79 244.995 212.889 246.546 198.113 248.735C190.72 249.819 183.349 251.109 176.013 252.544C168.672 253.979 161.361 255.56 154.076 257.266C146.791 258.975 139.536 260.813 132.312 262.763C125.087 264.708 117.884 266.76 110.758 269.001L110.358 267.767Z" fill="#5BC0BE"/>
<path d="M746.472 83.2587C739.436 84.8697 732.426 86.6093 725.438 88.4303C721.939 89.3172 718.458 90.2727 714.968 91.1981L707.142 93.3619L704.541 94.1117C690.668 98.0921 676.884 102.415 663.346 107.36C661.644 107.955 659.976 108.632 658.287 109.262L653.241 111.19L648.252 113.255C646.593 113.954 644.912 114.601 643.287 115.372C640.025 116.876 636.716 118.298 633.54 119.952C630.342 121.576 627.196 123.311 624.084 125.102C617.861 128.701 611.779 132.562 605.762 136.521C599.745 140.484 593.792 144.555 587.853 148.655C564.145 165.099 540.481 181.814 515.235 196.103C508.926 199.668 502.526 203.087 495.989 206.249C489.456 209.411 482.842 212.427 476.064 215.058C474.388 215.756 472.668 216.365 470.966 216.995C469.26 217.62 467.558 218.267 465.826 218.82C464.098 219.39 462.379 219.985 460.643 220.529L455.404 222.08C454.531 222.35 453.654 222.577 452.782 222.809L444.904 224.904C443.159 225.388 441.393 225.799 439.63 226.228L434.344 227.505C433.463 227.71 432.586 227.942 431.696 228.13L423.715 229.848C421.949 230.251 420.161 230.573 418.377 230.902L411.689 232.149L402.273 233.619C400.472 233.863 398.667 234.073 396.866 234.3L394.163 234.634C393.26 234.75 392.362 234.861 391.455 234.93C376.992 236.382 362.384 236.7 347.878 235.594C333.377 234.45 319.009 232.068 304.856 228.936C290.742 225.808 276.692 222.586 262.41 220.966C248.136 219.313 233.708 219.355 219.353 220.431C215.769 220.761 212.188 221.129 208.604 221.476L205.918 221.742L192.53 223.571C192.083 223.636 191.636 223.687 191.193 223.76L189.861 223.987L187.196 224.446L175.201 226.494L173.872 226.759L157.949 229.93C157.063 230.106 156.187 230.32 155.306 230.517L144.741 232.899C141.221 233.696 137.693 234.459 134.194 235.363L118.425 239.279C117.548 239.497 116.672 239.707 115.799 239.939L92.2377 246.203L91.9928 245.35L112.859 239.446L115.468 238.713C116.341 238.469 117.217 238.255 118.09 238.024L133.833 233.915C137.323 232.968 140.847 232.166 144.367 231.322L154.923 228.807C155.804 228.602 156.681 228.379 157.566 228.19L173.494 224.823L174.822 224.54L176.159 224.296L190.858 221.656C191.305 221.579 191.752 221.523 192.203 221.455L202.956 219.895L205.647 219.51L208.35 219.223C211.956 218.846 215.562 218.447 219.168 218.087C233.622 216.9 248.231 216.746 262.702 218.314C269.922 219.145 277.126 220.191 284.239 221.613C286.018 221.965 287.806 222.273 289.577 222.659L294.889 223.786C298.435 224.531 301.955 225.32 305.488 226.082C319.563 229.141 333.785 231.442 348.115 232.518C362.44 233.546 376.842 233.25 391.137 231.785C392.031 231.717 392.925 231.601 393.814 231.489L396.488 231.155C398.271 230.928 400.055 230.718 401.834 230.478L411.157 229.009L417.784 227.762C419.55 227.432 421.321 227.111 423.075 226.708L430.992 224.994C431.873 224.805 432.741 224.574 433.617 224.368L438.865 223.1C440.615 222.676 442.368 222.269 444.104 221.793L451.939 219.72C452.812 219.488 453.685 219.265 454.54 219L459.697 217.479C461.408 216.943 463.101 216.356 464.807 215.799C466.518 215.259 468.194 214.621 469.879 214.004C471.564 213.383 473.253 212.787 474.912 212.097C481.608 209.509 488.154 206.532 494.622 203.412C501.099 200.297 507.439 196.895 513.722 193.391C520.01 189.89 526.19 186.192 532.311 182.401C538.44 178.617 544.491 174.705 550.504 170.729C556.521 166.757 562.491 162.713 568.448 158.638L586.34 146.427C592.314 142.365 598.314 138.329 604.387 134.396C610.46 130.462 616.606 126.628 622.915 123.041C626.074 121.255 629.263 119.524 632.521 117.9C635.766 116.242 639.106 114.832 642.415 113.341C644.061 112.574 645.759 111.936 647.435 111.246L652.476 109.206L660.109 106.361C660.956 106.04 661.807 105.727 662.667 105.444C676.33 100.641 690.199 96.4768 704.15 92.6592C718.101 88.8416 732.151 85.4054 746.3 82.3847L746.472 83.2587Z" fill="#5BC0BE"/>
<path d="M76.1077 225.877C89.6246 222.158 103.185 218.614 116.787 215.212C130.386 211.806 144.019 208.537 157.704 205.465C171.393 202.414 185.129 199.556 198.968 197.161L209.373 195.494L217.221 194.462C218.094 194.346 218.962 194.222 219.843 194.149C226.87 193.408 233.906 193.112 240.933 192.975C254.992 192.722 269.016 193.065 283.027 193.378C297.038 193.695 311.036 193.978 325.03 193.905C332.027 193.883 339.02 193.729 346.004 193.502C352.993 193.258 359.968 192.859 366.935 192.345C373.894 191.775 380.848 191.094 387.763 190.173C389.495 189.959 391.214 189.676 392.942 189.432L395.529 189.05C396.389 188.917 397.248 188.759 398.108 188.613C399.823 188.313 401.546 188.031 403.257 187.718L408.384 186.698C410.099 186.381 411.788 185.957 413.486 185.58C415.184 185.19 416.886 184.821 418.566 184.367L423.621 183.065L428.628 181.599C430.304 181.141 431.95 180.554 433.613 180.014L438.586 178.369C441.895 177.259 445.235 176.226 448.493 174.967L458.318 171.342L459.542 170.883L472.888 165.463L482.472 161.235C484.066 160.523 485.678 159.846 487.247 159.079L496.72 154.598C498.305 153.869 499.853 153.055 501.422 152.28L506.106 149.932C507.666 149.143 509.239 148.385 510.782 147.567L515.429 145.133C518.527 143.509 521.626 141.898 524.695 140.218C537.021 133.607 549.202 126.701 561.558 120.068C573.91 113.435 586.426 107.013 599.419 101.601C602.629 100.162 605.96 99.009 609.248 97.7536C612.531 96.4682 615.871 95.4057 619.193 94.2702C625.847 92.0379 632.543 89.9385 639.256 87.9076C652.696 83.88 666.23 80.1995 679.824 76.7547C686.615 75.0194 693.431 73.3741 700.252 71.7545C707.081 70.1607 713.915 68.6225 720.783 67.1786L720.99 68.1469C714.164 69.6893 707.352 71.3303 700.557 73.0228C693.762 74.7152 686.972 76.4333 680.207 78.2415C666.672 81.832 653.198 85.6581 639.836 89.8185C633.153 91.8923 626.491 94.0303 619.877 96.2968C616.576 97.4494 613.245 98.5334 610.013 99.8274C606.764 101.091 603.476 102.252 600.304 103.705C587.462 109.155 575.058 115.62 562.787 122.322L553.598 127.395L544.426 132.506L535.233 137.596C532.169 139.297 529.079 140.951 526.001 142.631C522.933 144.323 519.821 145.947 516.718 147.579L512.063 150.03C510.516 150.853 508.934 151.62 507.37 152.417L502.668 154.786C501.095 155.566 499.543 156.384 497.953 157.126L488.442 161.65C486.865 162.426 485.244 163.107 483.645 163.827L474.014 168.103L461.82 173.094L460.6 173.591L459.366 174.054L449.485 177.726C446.21 178.999 442.854 180.048 439.523 181.171L434.52 182.838C432.848 183.386 431.198 183.977 429.496 184.449L424.42 185.944L419.301 187.276C417.599 187.743 415.876 188.108 414.157 188.498C412.437 188.875 410.723 189.303 408.99 189.62L403.803 190.64C402.071 190.953 400.33 191.235 398.598 191.531C397.73 191.677 396.862 191.831 395.993 191.964L393.38 192.345C391.635 192.589 389.899 192.872 388.154 193.082C381.174 193.999 374.173 194.667 367.163 195.229C360.149 195.73 353.13 196.116 346.112 196.347C339.089 196.561 332.07 196.703 325.048 196.711C311.006 196.754 296.982 196.441 282.967 196.094C268.955 195.777 254.953 195.31 240.976 195.477C233.992 195.571 227.012 195.82 220.092 196.506C219.228 196.574 218.36 196.69 217.496 196.797L209.704 197.774L199.342 199.363C185.546 201.656 171.818 204.445 158.125 207.367C130.734 213.22 103.503 219.852 76.3698 226.832L76.1077 225.877Z" fill="#5BC0BE"/>
<path d="M697.119 53.9348C670.369 59.9076 643.691 66.2574 617.22 73.3184C603.983 76.8361 590.775 80.4909 577.714 84.5741C576.072 85.0626 574.452 85.6024 572.823 86.1294L565.508 88.5074L563.092 89.36L558.257 91.0611L555.842 91.9137L548.669 94.6687C547.07 95.2642 545.497 95.937 543.915 96.5839L539.179 98.5377C526.594 103.872 514.26 109.819 501.808 115.569C489.366 121.336 476.764 126.855 463.905 131.709C451.05 136.581 437.958 140.823 424.747 144.602L414.81 147.335C413.985 147.571 413.151 147.781 412.317 147.982L399.819 151.089C398.151 151.496 396.466 151.834 394.79 152.211L384.72 154.422C371.237 157.113 357.673 159.384 344.032 161.093C330.386 162.743 316.684 163.882 302.982 164.714C289.28 165.562 275.579 166.115 261.92 167.036L256.801 167.383L246.58 168.244L241.487 168.793L236.394 169.35L231.323 170.052C229.634 170.297 227.936 170.502 226.251 170.772L221.21 171.655C219.529 171.955 217.845 172.225 216.168 172.55L206.094 174.564L201.065 175.614C194.356 176.998 187.66 178.454 180.964 179.907C167.572 182.829 154.21 185.875 140.843 188.922C114.114 195.01 87.4327 201.339 60.7684 207.701L60.5449 206.801C73.8341 203.421 87.1361 200.109 100.455 196.844C113.77 193.579 127.094 190.34 140.435 187.169C153.775 184.003 167.133 180.905 180.517 177.893C187.209 176.402 193.901 174.902 200.614 173.476L205.643 172.396L215.726 170.318C217.411 169.979 219.108 169.697 220.801 169.384C234.348 166.899 248.059 165.463 261.756 164.529C275.458 163.578 289.16 163 302.827 162.126C316.495 161.269 330.132 160.108 343.709 158.441C357.278 156.714 370.765 154.426 384.17 151.727L394.184 149.508C395.852 149.13 397.524 148.783 399.187 148.385L411.638 145.313C412.467 145.112 413.297 144.906 414.122 144.67L424.016 141.971C437.168 138.239 450.19 134.053 462.981 129.237C475.78 124.438 488.317 118.98 500.751 113.251C513.194 107.54 525.559 101.584 538.259 96.3225L543.038 94.3859C544.633 93.7432 546.215 93.0791 547.831 92.4921L555.068 89.7671L557.505 88.923L564.816 86.4037L572.178 84.0642C573.816 83.5458 575.449 83.0145 577.095 82.5346C590.23 78.5242 603.48 74.9466 616.761 71.5146C630.05 68.1083 643.386 64.8992 656.749 61.8185C670.115 58.7379 683.503 55.7901 696.943 53.0265L697.119 53.9348Z" fill="#5BC0BE"/>
<path d="M45.0249 187.902C97.2404 174.508 149.628 161.766 202.295 150.197C208.888 148.788 215.472 147.352 222.074 145.973L236.936 142.922L251.841 140.073C255.159 139.46 258.486 138.903 261.808 138.316L266.794 137.446L281.75 134.978C295.044 132.776 308.329 130.527 321.592 128.183C334.856 125.835 348.102 123.397 361.296 120.732L371.182 118.693L381.045 116.559L390.888 114.331L400.7 111.979L410.469 109.472L415.33 108.14C416.95 107.69 418.575 107.27 420.182 106.781C426.646 104.922 433.033 102.917 439.445 100.813C452.262 96.6396 465.108 92.5521 477.989 88.5717C490.875 84.6041 503.777 80.7008 516.748 77.0161C529.715 73.3227 542.72 69.7579 555.803 66.463C568.882 63.1382 582.055 60.2889 595.189 57.2683L634.631 48.382L674.082 39.5385L674.241 40.2454L634.911 49.5945L595.572 58.8964C582.459 62.0027 569.303 64.9377 556.285 68.344C543.253 71.716 530.291 75.3665 517.363 79.1412C491.511 86.695 465.796 94.7286 440.206 103.131C433.82 105.243 427.355 107.291 420.874 109.168C419.258 109.661 417.625 110.089 416 110.543L411.118 111.893L401.314 114.434L391.472 116.816C388.184 117.566 384.896 118.341 381.604 119.065L371.71 121.186L361.795 123.213C348.566 125.856 335.298 128.273 322.018 130.599C308.737 132.922 295.439 135.145 282.137 137.322L267.172 139.76L262.199 140.617C258.885 141.195 255.568 141.744 252.258 142.348L237.379 145.167L222.521 148.124C215.923 149.465 209.33 150.861 202.737 152.228C176.382 157.828 150.105 163.805 123.858 169.898C97.6016 175.965 71.3929 182.242 45.2056 188.605L45.0249 187.902Z" fill="#5BC0BE"/>
<path d="M29.7845 170.254L29.3289 168.158C31.6713 167.649 264.868 117.009 372.982 91.7038C496.204 62.864 648.522 25.0436 650.048 24.6665L650.568 26.7446C649.042 27.1217 496.711 64.9463 373.477 93.7904C265.337 119.1 32.1269 169.748 29.7845 170.254Z" fill="#5BC0BE"/>
<path d="M628.236 11.7955L15.249 151.061L15.6788 152.941L628.666 13.6754L628.236 11.7955Z" fill="#5BC0BE"/>
<path d="M45.5706 124.334L44.5945 125.174L360.878 490.472L361.854 489.632L45.5706 124.334Z" fill="#5BC0BE"/>
<path d="M88.5096 114.974L87.5591 115.842L415.517 472.542L416.467 471.673L88.5096 114.974Z" fill="#5BC0BE"/>
<path d="M468.981 454.71L385.799 369.904C365.04 348.742 345.905 332.551 327.399 316.899C308.763 301.136 291.163 286.243 272.433 266.962C252.103 246.027 242.076 232.466 232.38 219.347C224.068 208.1 216.211 197.474 202.454 182.992C171.981 150.921 128.241 107.325 127.803 106.888L128.714 105.98C129.153 106.417 172.905 150.026 203.386 182.109C217.2 196.651 225.078 207.307 233.416 218.588C243.086 231.669 253.083 245.2 273.357 266.071C292.04 285.309 309.618 300.18 328.228 315.922C346.756 331.595 365.917 347.804 386.718 369.009L469.901 453.814L468.981 454.71Z" fill="#5BC0BE"/>
<path d="M171.582 96.6182C179.172 103.568 186.594 110.685 193.939 117.887C195.783 119.682 197.601 121.499 199.424 123.316L202.157 126.041L204.865 128.787C206.67 130.621 208.475 132.455 210.246 134.319C212.021 136.182 213.817 138.02 215.571 139.906L220.836 145.549L226.015 151.277C226.883 152.224 227.73 153.197 228.572 154.173L231.104 157.091C232.814 159.019 234.434 161.025 236.076 163.013C236.893 164.011 237.727 164.996 238.53 166.003L240.894 169.071L243.254 172.143L245.48 175.327L246.589 176.921C246.959 177.452 247.337 177.979 247.676 178.527C248.373 179.611 249.082 180.691 249.761 181.784C251.136 183.96 252.49 186.154 253.827 188.352C259.173 197.14 264.365 205.992 269.802 214.685C272.514 219.034 275.282 223.349 278.119 227.612C280.964 231.866 283.886 236.07 286.899 240.209C292.921 248.482 299.269 256.512 306.115 264.113C309.523 267.926 313.125 271.563 316.83 275.094C320.526 278.637 324.433 281.954 328.473 285.107L331.529 287.438L334.675 289.649C335.711 290.403 336.798 291.084 337.873 291.783C338.951 292.472 340.009 293.201 341.118 293.852L347.706 297.85C349.907 299.178 352.142 300.442 354.359 301.74C356.569 303.051 358.829 304.272 361.069 305.532C363.304 306.8 365.577 308 367.838 309.221C372.364 311.655 376.936 314.015 381.497 316.389C383.77 317.593 386.061 318.763 388.317 320.005C389.448 320.622 390.587 321.226 391.709 321.852L395.065 323.767C396.191 324.393 397.283 325.078 398.383 325.747C399.479 326.428 400.592 327.075 401.671 327.778L404.894 329.907C405.432 330.267 405.973 330.61 406.502 330.978L408.075 332.101C416.494 338.048 424.347 344.732 431.98 351.622L437.662 356.84L443.284 362.119L454.492 372.711C461.954 379.784 469.376 386.893 476.79 394.018C491.635 408.243 506.416 422.532 521.106 436.916L520.449 437.58C491.197 408.697 461.726 380.011 431.58 352.067C423.973 345.169 416.095 338.549 407.692 332.649L406.124 331.535C405.595 331.171 405.054 330.828 404.521 330.473L401.301 328.36C400.223 327.666 399.114 327.019 398.022 326.347C396.926 325.683 395.835 325.006 394.708 324.384L391.36 322.486C390.239 321.861 389.1 321.265 387.969 320.652C385.717 319.423 383.422 318.257 381.144 317.066C376.576 314.705 371.994 312.362 367.451 309.937C365.182 308.72 362.904 307.524 360.66 306.265C358.412 305.009 356.143 303.792 353.925 302.49C351.699 301.196 349.456 299.936 347.246 298.612L340.632 294.632C336.244 291.933 331.916 289.105 327.798 285.994C319.516 279.837 311.771 272.952 304.633 265.488C297.455 258.058 290.909 250.038 284.823 241.713C281.802 237.535 278.871 233.293 276.021 229C273.185 224.703 270.417 220.358 267.709 215.983C262.281 207.238 257.106 198.356 251.807 189.577C250.483 187.384 249.142 185.198 247.784 183.03C247.113 181.942 246.413 180.871 245.725 179.791C245.386 179.247 245.02 178.729 244.659 178.206L243.572 176.638L241.401 173.493L236.79 167.374C236.003 166.368 235.187 165.382 234.383 164.384C232.771 162.396 231.181 160.39 229.501 158.454L227.008 155.527C226.178 154.551 225.349 153.574 224.493 152.622L219.392 146.868L214.196 141.191C210.701 137.433 207.19 133.689 203.627 129.991L200.967 127.206L198.28 124.447C196.488 122.609 194.704 120.762 192.891 118.941C189.285 115.286 185.653 111.653 181.991 108.05C178.329 104.446 174.663 100.847 170.95 97.2994L171.582 96.6182Z" fill="#5BC0BE"/>
<path d="M571.598 420.673L523.195 379.189L498.955 358.498L486.809 348.185L480.718 343.052C480.211 342.632 479.704 342.183 479.193 341.784L476.885 339.972C476.627 339.77 476.352 339.595 476.085 339.406L474.478 338.288C470.141 335.37 465.439 332.979 460.591 330.94C455.739 328.896 450.74 327.178 445.682 325.627C435.56 322.533 425.207 320.108 414.909 317.4C404.607 314.718 394.296 311.852 384.273 308.064C374.263 304.289 364.477 299.636 355.675 293.394C351.261 290.3 347.13 286.804 343.314 283.021C339.493 279.233 335.973 275.154 332.715 270.899C329.436 266.649 326.488 262.176 323.677 257.63C322.989 256.486 322.263 255.359 321.609 254.198L319.611 250.723C318.953 249.562 318.33 248.379 317.69 247.21L316.736 245.453L315.82 243.675L313.993 240.114L312.244 236.52L311.372 234.72L310.534 232.908L308.853 229.283C306.67 224.433 304.525 219.574 302.419 214.702C298.186 204.968 294.038 195.207 289.573 185.614C288.451 183.219 287.338 180.815 286.164 178.45C285.58 177.263 285.017 176.068 284.415 174.89L282.61 171.363L281.703 169.602L280.757 167.863L278.879 164.375L276.911 160.943C276.253 159.799 275.604 158.651 274.895 157.541L272.811 154.182C272.11 153.068 271.345 151.993 270.619 150.9C269.188 148.685 267.554 146.624 265.998 144.503C262.728 140.411 259.199 136.461 255.542 132.63C240.903 117.317 225.276 102.891 209.339 88.8716L209.971 88.1303C218.145 94.9386 226.135 101.953 234.013 109.095C241.874 116.259 249.632 123.543 257.02 131.221C260.738 135.034 264.335 138.972 267.739 143.136C269.347 145.279 271.036 147.37 272.51 149.598C273.262 150.703 274.048 151.787 274.775 152.91L276.924 156.294C277.654 157.413 278.325 158.57 279 159.718L281.028 163.171L282.962 166.672L283.921 168.428L284.84 170.202L286.676 173.754C287.282 174.941 287.858 176.141 288.451 177.332C289.641 179.714 290.772 182.122 291.906 184.53C296.432 194.162 300.623 203.922 304.882 213.635C307.005 218.494 309.158 223.336 311.35 228.156L313.031 231.747L313.869 233.542L316.486 238.876L319.194 244.159L320.135 245.899C320.767 247.055 321.381 248.225 322.026 249.373L323.99 252.805C324.635 253.958 325.349 255.063 326.023 256.195C328.783 260.681 331.675 265.085 334.877 269.254C341.238 277.609 348.626 285.206 357.205 291.23C365.753 297.318 375.325 301.903 385.184 305.643C395.061 309.392 405.277 312.259 415.545 314.958L430.983 318.986C436.132 320.357 441.276 321.771 446.378 323.369C451.48 324.967 456.538 326.737 461.477 328.853C466.411 330.965 471.22 333.446 475.69 336.488L477.349 337.654C477.624 337.851 477.908 338.035 478.174 338.245L478.969 338.875L480.555 340.139C481.092 340.559 481.574 340.996 482.085 341.424L488.15 346.6L500.235 356.994C508.285 363.931 516.297 370.911 524.304 377.895C540.313 391.871 556.31 405.856 572.239 419.927L571.598 420.673Z" fill="#5BC0BE"/>
<path d="M386.297 303.887C384.239 301.976 382.283 299.988 380.383 297.935C379.416 296.924 378.505 295.866 377.568 294.825C376.661 293.762 375.733 292.712 374.848 291.633C371.285 287.318 367.924 282.828 364.881 278.115C361.821 273.41 359.066 268.491 356.745 263.346L355.086 259.489C354.527 258.204 354.041 256.901 353.513 255.608C352.464 253.02 351.488 250.415 350.483 247.814C346.559 237.394 342.858 226.913 339.076 216.468C335.294 206.022 331.512 195.58 327.536 185.224C325.538 180.053 323.509 174.89 321.347 169.791L319.727 165.965L318.038 162.177C316.942 159.632 315.695 157.181 314.501 154.692C313.882 153.462 313.207 152.258 312.562 151.041L311.586 149.22C311.26 148.612 310.895 148.029 310.551 147.429L308.453 143.86C307.727 142.686 306.975 141.53 306.236 140.364L305.123 138.616C304.749 138.033 304.344 137.472 303.958 136.902L301.611 133.483C300.812 132.356 299.978 131.251 299.165 130.132C298.349 129.018 297.537 127.896 296.668 126.816C283.113 109.313 267.12 93.6746 249.615 80.0067L250.195 79.244C252.413 80.9322 254.669 82.5732 256.84 84.3256C257.931 85.1954 259.04 86.0395 260.115 86.9307L263.334 89.6043C267.585 93.2162 271.766 96.9138 275.785 100.787C277.822 102.694 279.782 104.682 281.755 106.657C282.752 107.634 283.689 108.667 284.66 109.673C285.614 110.693 286.598 111.683 287.531 112.724C289.392 114.806 291.283 116.863 293.067 119.014C293.965 120.085 294.885 121.135 295.766 122.219L298.388 125.492C299.273 126.572 300.107 127.695 300.949 128.813C301.787 129.931 302.638 131.041 303.459 132.172L305.875 135.604C306.274 136.178 306.687 136.744 307.074 137.326L308.221 139.083C308.982 140.257 309.76 141.418 310.508 142.601L312.678 146.195C313.035 146.8 313.413 147.387 313.753 147.999L314.767 149.842C315.438 151.071 316.134 152.288 316.778 153.531C321.884 163.514 326.079 173.848 330.162 184.204C338.294 204.933 345.506 225.975 353.289 246.756C355.228 251.949 357.235 257.116 359.371 262.193C361.537 267.223 364.163 272.065 367.017 276.774C369.896 281.47 373.025 286.028 376.365 290.433C377.19 291.543 378.054 292.622 378.901 293.719C379.777 294.79 380.628 295.883 381.522 296.941C383.289 299.071 385.098 301.179 386.976 303.201L386.297 303.887Z" fill="#5BC0BE"/>
<path d="M289.882 70.6148C294.898 74.7152 299.819 78.9227 304.65 83.2373C309.476 87.5562 314.255 91.9308 318.902 96.4511C320.079 97.5651 321.214 98.7219 322.37 99.8573C323.522 100.997 324.678 102.137 325.795 103.311C326.921 104.476 328.06 105.633 329.178 106.811L332.474 110.393C336.807 115.231 340.997 120.222 344.706 125.625L346.056 127.682C346.503 128.367 346.903 129.078 347.332 129.777C347.745 130.48 348.183 131.174 348.574 131.885L349.756 134.023C351.325 136.876 352.791 139.781 354.209 142.704C357.037 148.552 359.646 154.486 362.16 160.455C367.167 172.405 371.758 184.5 376.309 196.6C380.839 208.708 385.244 220.851 389.817 232.92C392.099 238.958 394.433 244.969 396.827 250.946C399.23 256.919 401.74 262.849 404.478 268.641C405.879 271.512 407.28 274.396 408.9 277.108L409.497 278.136L410.129 279.169L411.397 281.23L413.946 285.343C417.346 290.819 420.805 296.247 424.618 301.402C425.589 302.674 426.517 303.985 427.54 305.215L429.044 307.083L430.618 308.891C431.649 310.116 432.784 311.243 433.871 312.413L434.284 312.85L434.718 313.266L435.586 314.093C436.17 314.637 436.725 315.215 437.335 315.734L439.153 317.297C439.458 317.555 439.751 317.829 440.069 318.073L441.019 318.806L442.918 320.28L444.9 321.642C446.198 322.589 447.607 323.365 448.97 324.221C449.645 324.663 450.371 325.01 451.076 325.4L453.203 326.544L452.92 327.144C446.95 324.569 441.302 321.149 436.248 316.989C431.185 312.829 426.784 307.931 422.744 302.82C421.73 301.543 420.775 300.223 419.795 298.925C418.858 297.597 417.9 296.281 416.976 294.945C415.132 292.271 413.331 289.572 411.565 286.855L408.943 282.768L406.996 279.696L406.36 278.637C404.628 275.822 403.158 272.909 401.688 269.995C398.843 264.134 396.312 258.157 393.857 252.158C391.399 246.164 389.1 240.114 386.822 234.06C382.275 221.952 377.869 209.805 373.412 197.684C368.955 185.567 364.451 173.471 359.564 161.543C357.127 155.579 354.605 149.649 351.871 143.83C349.133 138.02 346.198 132.292 342.751 126.936C339.227 121.619 335.165 116.619 330.949 111.76C326.711 106.91 322.271 102.231 317.745 97.6293C313.22 93.0277 308.552 88.5588 303.833 84.1457C299.097 79.7539 294.331 75.3793 289.444 71.1547L289.882 70.6148Z" fill="#5BC0BE"/>
<path d="M620.233 404.579L614.723 399.965L609.183 395.389C605.483 392.343 601.8 389.283 598.073 386.267L575.745 368.156C568.284 362.145 560.823 356.129 553.315 350.182C549.554 347.213 545.793 344.248 542.007 341.321C538.216 338.399 534.434 335.469 530.523 332.778C526.607 330.091 522.533 327.632 518.364 325.327C514.199 323.009 509.936 320.858 505.668 318.63C503.536 317.512 501.404 316.376 499.307 315.138C497.205 313.921 495.134 312.593 493.165 311.089C492.151 310.352 491.266 309.542 490.333 308.758L487.565 306.389L483.615 302.623L482.958 301.993L482.335 301.333C478.961 297.854 475.729 294.246 472.72 290.467L470.459 287.635C469.699 286.697 469.007 285.707 468.28 284.747L466.118 281.842C465.409 280.865 464.734 279.867 464.043 278.882C458.52 270.977 453.508 262.75 448.768 254.386C439.325 237.634 431.052 220.302 423.242 202.812C419.331 194.068 415.476 185.306 411.638 176.539C407.787 167.777 403.927 159.028 399.887 150.36C398.877 148.192 397.837 146.046 396.81 143.886L393.643 137.455C391.468 133.2 389.259 128.963 386.873 124.828C386.272 123.796 385.704 122.746 385.081 121.73L383.216 118.675C382.614 117.643 381.922 116.674 381.264 115.676L380.267 114.189L379.769 113.448L379.245 112.724L376.606 109.108L376.051 108.405L374.947 106.996C373.498 105.097 371.947 103.281 370.412 101.447C364.21 94.176 357.454 87.3763 350.384 80.9322C346.864 77.693 343.228 74.5738 339.536 71.5317C335.844 68.4896 332.079 65.529 328.22 62.7054L328.83 61.8913C336.484 67.6927 343.83 73.884 350.925 80.3409C354.458 83.5844 357.935 86.8921 361.284 90.3283C362.981 92.025 364.623 93.7732 366.269 95.5213C367.103 96.3825 367.881 97.2994 368.693 98.1821C369.488 99.0818 370.313 99.9516 371.078 100.877C372.63 102.707 374.203 104.523 375.673 106.421L377.353 108.534L380.035 112.154C382.812 116.075 385.442 120.106 387.849 124.254C392.714 132.528 397.111 141.058 401.344 149.653C409.816 166.847 417.707 184.299 425.873 201.596L428.95 208.074L432.057 214.535L435.191 220.979L438.375 227.393C442.639 235.937 447.07 244.39 451.742 252.703C456.414 261.01 461.386 269.147 466.776 276.979C472.161 284.811 478.032 292.31 484.556 299.178L485.158 299.829L485.79 300.45L489.594 304.174L492.254 306.513C493.144 307.284 494.016 308.103 494.94 308.784C496.763 310.211 498.718 311.505 500.747 312.713C502.762 313.934 504.847 315.082 506.949 316.218C511.152 318.489 515.424 320.704 519.606 323.112C523.788 325.515 527.893 328.082 531.838 330.884C535.779 333.695 539.531 336.698 543.283 339.689C547.031 342.684 550.749 345.713 554.462 348.742C561.885 354.814 569.281 360.911 576.661 367.029L615.334 399.215L620.882 403.783L620.233 404.579Z" fill="#5BC0BE"/>
<path d="M668.138 388.782C663.496 384.922 658.829 380.933 653.886 376.708C625.498 352.431 593.324 324.911 561.803 321.025L561.962 319.748C593.87 323.686 626.199 351.339 654.724 375.735C659.663 379.956 664.326 383.945 668.963 387.801L668.138 388.782Z" fill="#5BC0BE"/>
<path d="M715.841 372.998L711.551 369.643C687.418 350.765 666.574 334.462 647.723 323.592C627.2 311.758 611.255 307.828 597.545 311.222L597.235 309.975C611.289 306.496 627.536 310.468 648.368 322.482C667.296 333.395 688.175 349.724 712.346 368.632L716.636 371.986L715.841 372.998Z" fill="#5BC0BE"/>
<path d="M758.321 358.768C749.644 352.003 740.928 345.289 732.203 338.596C723.461 331.917 714.697 325.271 705.818 318.789C703.596 317.173 701.37 315.558 699.126 313.985L697.446 312.799L694.059 310.476C693.496 310.082 692.916 309.735 692.344 309.367C687.779 306.415 682.927 303.912 677.856 301.989C672.784 300.06 667.502 298.711 662.134 297.888C656.757 297.1 651.307 296.838 645.862 296.928L641.774 297.057L637.696 297.365C636.333 297.447 634.98 297.623 633.621 297.781C632.268 297.952 630.905 298.077 629.556 298.287C626.857 298.728 624.149 299.079 621.467 299.645L617.44 300.42C616.069 300.673 614.706 300.973 613.327 301.192C607.821 302.109 602.216 302.631 596.599 302.417C595.194 302.4 593.792 302.258 592.391 302.169C590.995 302.006 589.594 301.877 588.205 301.633C586.808 301.44 585.433 301.136 584.053 300.862C582.687 300.527 581.311 300.215 579.966 299.803C577.263 299.024 574.602 298.085 572.024 296.971C569.445 295.866 566.913 294.645 564.472 293.274C562.027 291.911 559.637 290.463 557.325 288.899C555.004 287.352 552.743 285.728 550.538 284.036C546.111 280.677 541.895 277.082 537.765 273.41C535.702 271.572 533.656 269.725 531.636 267.84L525.627 262.12C517.741 254.361 510.318 246.134 503.416 237.496C496.5 228.867 490.144 219.81 484.187 210.52C478.226 201.231 472.673 191.715 467.21 182.169C461.76 172.614 456.388 163.038 450.779 153.616C445.162 144.199 439.347 134.906 433.067 125.934C426.792 116.957 420.109 108.264 412.966 99.9516C405.814 91.648 398.28 83.6657 390.355 76.0734C386.327 72.3458 382.339 68.5711 378.153 65.0148C374.061 61.3472 369.763 57.9238 365.538 54.4061L366.02 53.7977L374.156 60.1604L374.968 60.7988L375.763 61.4586L378.935 64.1065C383.207 67.5899 387.286 71.2961 391.403 74.9637C399.509 82.4404 407.284 90.2812 414.582 98.5591C421.893 106.824 428.765 115.479 435.169 124.464C441.577 133.444 447.569 142.716 453.255 152.147C458.949 161.577 464.395 171.136 469.896 180.64C475.389 190.147 480.925 199.616 486.86 208.82C492.791 218.023 499.109 226.965 505.917 235.517C512.725 244.069 520.049 252.21 527.837 259.892L533.768 265.556C535.766 267.429 537.799 269.271 539.841 271.096C543.932 274.734 548.084 278.295 552.403 281.611C554.557 283.278 556.762 284.876 559.014 286.393C561.257 287.922 563.569 289.336 565.925 290.664C568.276 292.001 570.708 293.188 573.18 294.259C575.651 295.343 578.191 296.247 580.774 297.006C582.059 297.404 583.37 297.708 584.677 298.034C585.996 298.299 587.307 298.599 588.644 298.788C589.967 299.028 591.313 299.152 592.649 299.319C593.995 299.413 595.336 299.555 596.685 299.576C602.079 299.795 607.503 299.358 612.867 298.505C614.208 298.304 615.54 298.025 616.881 297.785L620.973 297.031C623.689 296.487 626.448 296.149 629.19 295.724C630.561 295.523 631.949 295.407 633.329 295.249C634.709 295.099 636.088 294.932 637.477 294.863L641.637 294.585L645.81 294.486C651.376 294.443 656.959 294.756 662.478 295.613C667.988 296.504 673.42 297.944 678.625 299.975C683.83 301.997 688.794 304.615 693.44 307.679C694.02 308.064 694.618 308.428 695.181 308.827L696.874 310.018L698.567 311.213L700.239 312.43C702.474 314.045 704.679 315.695 706.888 317.345C715.694 323.964 724.368 330.738 733.019 337.542C741.671 344.346 750.254 351.236 758.798 358.164L758.321 358.768Z" fill="#5BC0BE"/>
<path d="M401.894 45.9311C410.946 51.7625 419.636 58.1123 428.112 64.7449C436.57 71.3946 444.805 78.3485 452.619 85.7695C456.525 89.48 460.333 93.2933 464.025 97.2309C467.721 101.156 471.263 105.239 474.628 109.463C477.998 113.68 481.17 118.084 484.118 122.609L488.571 129.276C490.084 131.482 491.644 133.654 493.178 135.844C494.695 138.046 496.324 140.171 497.906 142.331L500.296 145.557C501.091 146.633 501.924 147.678 502.741 148.741C504.383 150.853 506.003 152.982 507.662 155.086L513.954 162.91L515.235 164.457L517.801 167.546C519.512 169.607 521.209 171.676 522.967 173.698L528.202 179.796L533.531 185.811C540.679 193.793 547.964 201.656 555.477 209.295C562.981 216.939 570.627 224.454 578.591 231.601C580.546 233.43 582.596 235.144 584.608 236.909C585.622 237.784 586.615 238.675 587.642 239.532L593.831 244.622L596.994 247.064C598.034 247.895 599.135 248.645 600.205 249.438L601.821 250.607L603.471 251.73C612.244 257.733 621.725 262.741 631.829 265.955C633.084 266.383 634.365 266.713 635.637 267.086C636.273 267.279 636.922 267.412 637.563 267.579C638.207 267.733 638.848 267.909 639.492 268.042C640.79 268.307 642.08 268.607 643.391 268.821C644.044 268.933 644.693 269.061 645.35 269.16L647.319 269.447C652.58 270.167 657.9 270.471 663.247 270.569C668.598 270.681 673.988 270.608 679.411 270.865C682.123 270.989 684.844 271.229 687.556 271.628L688.57 271.778L691.6 272.395C692.279 272.515 692.933 272.716 693.595 272.896L695.572 273.44C700.802 275.008 705.818 277.103 710.718 279.391C711.934 279.983 713.172 280.531 714.371 281.152L717.981 282.995C720.353 284.276 722.743 285.536 725.077 286.89C734.464 292.207 743.511 298.068 752.373 304.169C761.231 310.284 769.904 316.646 778.44 323.185C786.98 329.719 795.365 336.445 803.574 343.391L803.192 343.845C799.036 340.452 794.815 337.131 790.573 333.84C786.322 330.558 782.059 327.302 777.748 324.101C769.135 317.696 760.384 311.466 751.466 305.502C747.001 302.528 742.505 299.602 737.949 296.778L736.243 295.712L734.524 294.67L731.081 292.597C728.764 291.251 726.461 289.884 724.11 288.599C721.78 287.275 719.404 286.05 717.04 284.799L713.451 283.008C712.26 282.399 711.036 281.872 709.828 281.298C704.976 279.083 700.024 277.065 694.936 275.591L693.023 275.081C692.383 274.914 691.751 274.721 691.102 274.618L688.201 274.053L687.221 273.92C684.608 273.56 681.96 273.346 679.3 273.252C673.979 273.042 668.607 273.162 663.204 273.097C657.802 273.042 652.36 272.797 646.958 272.073L644.933 271.786C644.259 271.688 643.588 271.559 642.918 271.448C641.573 271.234 640.24 270.934 638.904 270.664C638.237 270.527 637.576 270.351 636.914 270.197C636.252 270.03 635.581 269.892 634.928 269.7C633.617 269.327 632.293 268.988 631 268.556C625.795 266.919 620.74 264.832 615.879 262.39C611.014 259.948 606.347 257.146 601.851 254.108L600.162 252.973L598.512 251.786C597.42 250.984 596.294 250.222 595.232 249.382L592.013 246.906L585.747 241.773C584.711 240.907 583.705 240.012 582.682 239.133C580.654 237.355 578.582 235.624 576.614 233.79C568.581 226.601 560.883 219.064 553.332 211.39C551.458 209.458 549.55 207.56 547.706 205.602L542.162 199.732C540.314 197.778 538.526 195.764 536.703 193.785L533.983 190.803C533.08 189.809 532.199 188.789 531.305 187.786L525.967 181.736L520.723 175.601C518.961 173.57 517.259 171.483 515.545 169.41L512.974 166.299L511.694 164.739L505.423 156.838C503.768 154.718 502.152 152.567 500.515 150.429C499.702 149.353 498.869 148.299 498.078 147.211L495.697 143.95C494.119 141.769 492.495 139.623 490.982 137.395C489.452 135.18 487.892 132.986 486.388 130.749L481.969 123.98C479.102 119.485 476.042 115.136 472.754 110.933C471.921 109.892 471.121 108.825 470.262 107.801L467.704 104.72L465.078 101.695C464.206 100.684 463.295 99.7074 462.405 98.7091C458.808 94.7544 455.081 90.9153 451.256 87.1706C443.584 79.7068 435.56 72.5814 427.257 65.7946C423.105 62.4012 418.889 59.0849 414.604 55.8543C410.319 52.6323 405.995 49.4402 401.559 46.4281L401.894 45.9311Z" fill="#5BC0BE"/>
<path d="M846.893 329.449C829.585 317.216 812.239 305.035 794.768 293.038L781.629 284.092L775.044 279.644C772.848 278.162 770.648 276.692 768.439 275.235C766.23 273.774 764.025 272.305 761.803 270.874C759.585 269.434 757.367 267.986 755.124 266.589L751.767 264.477L748.367 262.484C747.796 262.159 747.241 261.803 746.661 261.503L744.916 260.586L743.171 259.665L742.299 259.207L741.409 258.782C731.962 254.151 721.922 250.847 711.723 248.058C706.626 246.64 701.494 245.32 696.367 243.919C691.244 242.501 686.121 241.057 681.058 239.39L679.154 238.778L677.263 238.122L673.485 236.807L669.741 235.393L667.872 234.681L662.323 232.389L658.674 230.748C656.224 229.69 653.856 228.46 651.453 227.295C641.912 222.513 632.783 216.943 624.037 210.863C615.295 204.771 606.949 198.151 598.868 191.235L595.851 188.626C594.85 187.752 593.827 186.899 592.856 185.991L586.968 180.618L585.497 179.273L584.062 177.893L578.329 172.366L576.897 170.982L575.496 169.568C571.77 165.785 567.996 162.049 564.386 158.154L558.919 152.365L553.543 146.504C546.404 138.663 539.385 130.728 532.319 122.844C518.196 107.085 503.768 91.6009 487.948 77.5602C472.217 63.4295 455.352 50.5756 437.958 38.4887L438.414 37.8204L445.016 42.2635C447.208 43.7546 449.438 45.1942 451.579 46.7624C455.894 49.8473 460.252 52.8808 464.46 56.1114L467.644 58.5022C468.706 59.2992 469.772 60.0918 470.803 60.923L477.048 65.8632L478.608 67.1014L480.138 68.3782L486.241 73.5026C487.26 74.3553 488.236 75.2551 489.237 76.1249C497.261 83.0831 504.937 90.4397 512.407 97.9807C519.877 105.526 527.119 113.285 534.223 121.148C548.458 136.851 562.474 152.717 577.465 167.61C585.003 175.01 592.641 182.319 600.673 189.17C608.676 196.056 616.937 202.637 625.576 208.687C634.219 214.724 643.227 220.247 652.635 224.99C655.003 226.142 657.337 227.363 659.753 228.413L663.35 230.046L668.821 232.321L670.665 233.028L674.357 234.433L678.088 235.744L679.953 236.395L681.836 237.004C691.863 240.307 702.135 242.865 712.364 245.783C722.593 248.658 732.779 252.086 742.359 256.867L743.261 257.304L747.68 259.674C748.273 259.986 748.832 260.351 749.412 260.685L752.854 262.737L756.211 264.884C758.459 266.302 760.668 267.772 762.886 269.228C765.108 270.681 767.304 272.163 769.505 273.646C778.307 279.567 787.023 285.604 795.696 291.705C813.03 303.921 830.269 316.261 847.366 328.793L846.893 329.449Z" fill="#5BC0BE"/>
<path d="M474.736 29.8724L487.617 39.0072L500.437 48.2234C508.969 54.3889 517.496 60.5631 525.945 66.8401C534.395 73.1213 542.819 79.4325 551.114 85.9409C553.173 87.5905 555.262 89.1929 557.29 90.8854C558.309 91.7294 559.34 92.5521 560.342 93.409L563.333 96.0183C564.339 96.8795 565.297 97.7793 566.277 98.6662L569.196 101.336L574.959 106.738C582.588 113.992 590.148 121.298 597.833 128.47C605.513 135.638 613.271 142.725 621.222 149.585C629.19 156.419 637.313 163.068 645.707 169.354C654.127 175.601 662.8 181.484 671.86 186.737C680.954 191.981 690.259 196.853 699.698 201.467C709.136 206.082 718.725 210.401 728.309 214.775C737.889 219.154 747.448 223.649 756.791 228.563L760.286 230.427C761.45 231.044 762.615 231.665 763.762 232.321C766.058 233.619 768.378 234.879 770.656 236.211L777.473 240.234L784.195 244.412C801.98 255.71 819.515 267.365 836.948 279.177C854.354 291.02 871.705 302.944 888.901 315.087L888.531 315.614C871.116 303.792 853.662 292.027 836.109 280.415C818.552 268.817 800.965 257.244 783.12 246.117L776.398 242.012L769.586 238.062C767.313 236.755 764.996 235.517 762.701 234.244C761.558 233.602 760.393 232.993 759.228 232.389L755.738 230.564C746.42 225.727 736.909 221.258 727.325 216.913C717.74 212.569 708.117 208.262 698.623 203.648C689.133 199.038 679.76 194.158 670.601 188.909C661.429 183.617 652.64 177.705 644.151 171.415C635.714 165.056 627.57 158.342 619.589 151.457C611.625 144.546 603.867 137.412 596.195 130.205C588.519 122.994 580.972 115.659 573.382 108.388L567.687 102.947L564.807 100.264C563.845 99.3775 562.895 98.4648 561.911 97.6079L558.979 95.0029C557.995 94.1417 556.976 93.3147 555.975 92.4706C553.985 90.7739 551.914 89.1501 549.881 87.4919C541.676 80.9279 533.317 74.5395 524.936 68.1854C516.546 61.8399 508.152 55.4987 499.711 49.2131L474.353 30.4122L474.736 29.8724Z" fill="#5BC0BE"/>
<path d="M508.883 22.3014L561.016 58.1423L613.064 94.1074C617.41 97.0852 621.712 100.183 625.945 103.332C630.17 106.499 634.365 109.703 638.525 112.947C646.855 119.421 655.124 125.946 663.531 132.288C671.933 138.633 680.464 144.799 689.198 150.673C697.931 156.547 706.841 162.143 715.957 167.396C734.197 177.906 753.061 187.379 771.563 197.551C790.087 207.671 808.31 218.421 825.734 230.375L829.005 232.608L830.638 233.726L838.693 239.485L851.505 248.744C860.066 254.888 868.709 260.912 877.395 266.885C886.086 272.845 894.849 278.702 903.686 284.443C908.104 287.314 912.544 290.15 917.005 292.961C921.462 295.772 925.945 298.548 930.466 301.243L930.079 301.907C920.946 296.603 911.981 291.046 903.08 285.381C894.183 279.713 885.355 273.933 876.6 268.046C867.854 262.146 859.176 256.143 850.568 250.046L837.695 240.851L829.633 235.157L827.999 234.052L819.812 228.537L811.512 223.199C810.412 222.479 809.286 221.798 808.164 221.104L801.442 216.96C800.321 216.275 799.182 215.611 798.051 214.934C789.034 209.496 779.837 204.351 770.592 199.299C752.107 189.179 733.226 179.744 714.887 169.225C696.522 158.728 679.106 146.667 662.289 133.912C653.873 127.54 645.604 120.985 637.3 114.502C633.153 111.254 628.975 108.05 624.772 104.883C620.547 101.738 616.314 98.6405 611.981 95.6327L560.166 59.342L508.436 22.927L508.883 22.3014Z" fill="#5BC0BE"/>
<path d="M970.845 288.561L851.453 212.517C834.936 201.998 817.525 191.471 793.431 176.903C778.04 167.597 760.595 157.053 738.671 143.668C697.875 118.765 674.516 102.188 657.462 90.0841C650.439 85.1011 644.37 80.7951 638.379 76.8018C615.841 61.7928 543.112 16.1188 542.377 15.656L543.064 14.5677C543.795 15.0262 616.541 60.7088 639.093 75.7307C645.101 79.7325 651.178 84.0428 658.21 89.0344C675.251 101.126 698.589 117.69 739.346 142.566C761.27 155.952 778.711 166.496 794.102 175.798C818.204 190.37 835.62 200.897 852.149 211.425L971.541 287.468L970.845 288.561Z" fill="#5BC0BE"/>
<path d="M578.363 6.70445L577.681 7.79548L1009.19 275.744L1009.88 274.653L578.363 6.70445Z" fill="#5BC0BE"/>
</g>
</svg>
