<svg width="24" height="24" viewBox="0 0 24 24" fill="none" xmlns="http://www.w3.org/2000/svg">
<path d="M6 19L2 15L3.4 13.55L5 15.15V8C5 6.9 5.39167 5.95833 6.175 5.175C6.95833 4.39167 7.9 4 9 4C10.1 4 11.0417 4.39167 11.825 5.175C12.6083 5.95833 13 6.9 13 8V15C13 15.55 13.196 16.021 13.588 16.413C13.98 16.805 14.4507 17.0007 15 17C15.5493 16.9993 16.0203 16.8037 16.413 16.413C16.8057 16.0223 17.0013 15.5513 17 15V7.85L15.4 9.45L14 8L18 4L22 8L20.6 9.45L19 7.85V15C19 16.1 18.6083 17.0417 17.825 17.825C17.0417 18.6083 16.1 19 15 19C13.9 19 12.9583 18.6083 12.175 17.825C11.3917 17.0417 11 16.1 11 15V8C11 7.45 10.8043 6.97933 10.413 6.588C10.0217 6.19667 9.55067 6.00067 9 6C8.44933 5.99933 7.97867 6.19533 7.588 6.588C7.19733 6.98067 7.00133 7.45133 7 8V15.15L8.6 13.55L10 15L6 19Z" fill="#6FFFE9"/>
</svg>
