<svg width="25" height="25" viewBox="0 0 25 25" fill="none" xmlns="http://www.w3.org/2000/svg">
<g clip-path="url(#clip0_8_1082)">
<path d="M19.5 6.5C19.5 6.23478 19.3946 5.98043 19.2071 5.79289C19.0196 5.60536 18.7652 5.5 18.5 5.5H10.5C10.2348 5.5 9.98043 5.60536 9.79289 5.79289C9.60536 5.98043 9.5 6.23478 9.5 6.5C9.5 6.76522 9.60536 7.01957 9.79289 7.20711C9.98043 7.39464 10.2348 7.5 10.5 7.5H16.086L6.136 17.45C5.95384 17.6386 5.85305 17.8912 5.85533 18.1534C5.8576 18.4156 5.96277 18.6664 6.14818 18.8518C6.33359 19.0372 6.5844 19.1424 6.8466 19.1447C7.1088 19.147 7.3614 19.0462 7.55 18.864L17.5 8.914V14.5C17.5 14.7652 17.6054 15.0196 17.7929 15.2071C17.9804 15.3946 18.2348 15.5 18.5 15.5C18.7652 15.5 19.0196 15.3946 19.2071 15.2071C19.3946 15.0196 19.5 14.7652 19.5 14.5V6.5Z" fill="#919191"/>
</g>
<defs>
<clipPath id="clip0_8_1082">
<rect width="24" height="24" fill="white" transform="matrix(-1 0 0 1 24.5 0.5)"/>
</clipPath>
</defs>
</svg>
